<svg id="Layer_1" data-name="Layer 1" xmlns="http://www.w3.org/2000/svg" viewBox="0 0 20 23.71"><title>data tab icon_400</title><path d="M20.16,2.69,21.34.45A.11.11,0,0,0,21.19.3L19,1.48a.09.09,0,0,1-.1,0L16.64.32a.11.11,0,0,0-.14.15l1.16,2.22a.09.09,0,0,1,0,.1L16.52,5a.11.11,0,0,0,.14.15L18.85,4A.09.09,0,0,1,19,4l2.22,1.17A.11.11,0,0,0,21.32,5L20.16,2.79A.09.09,0,0,1,20.16,2.69Z" transform="translate(-3 -0.29)"/><path d="M12.2,2.86l1.06-.71a.06.06,0,0,0,0-.1L12,2a.05.05,0,0,1,0,0l-.69-1a.05.05,0,0,0-.1,0l0,1.25a.08.08,0,0,1,0,0l-1,.68a.05.05,0,0,0,0,.1l1.24,0s0,0,0,0l.7,1a.06.06,0,0,0,.1,0l0-1.25A.05.05,0,0,1,12.2,2.86Z" transform="translate(-3 -0.29)"/><path d="M21.8,9.91,23,9.13a.06.06,0,0,0,0-.11L21.53,9a.05.05,0,0,1-.05,0l-.76-1.15a.06.06,0,0,0-.11,0l0,1.39a.05.05,0,0,1,0,0l-1.14.76a.06.06,0,0,0,0,.11l1.38,0,.05,0,.77,1.17a.06.06,0,0,0,.11,0l0-1.39A.05.05,0,0,1,21.8,9.91Z" transform="translate(-3 -0.29)"/><polygon points="3 15.71 7 15.71 7 13.71 3 13.65 3 15.71"/><polygon points="8 15.71 12 15.71 12 13.71 8 13.65 8 15.71"/><path d="M17.51,10.25,13.67,6.46A1.63,1.63,0,0,0,12.52,6H4.62A1.67,1.67,0,0,0,4,6.12a1.77,1.77,0,0,0-.53.34A1.56,1.56,0,0,0,3,7.59V22.41A1.61,1.61,0,0,0,4.62,24H16.38A1.61,1.61,0,0,0,18,22.41v-11A1.55,1.55,0,0,0,17.51,10.25ZM12,7.16,15.84,11H12.58a.58.58,0,0,1-.58-.57Zm4,6.78V20H5V13H16Z" transform="translate(-3 -0.29)"/><rect x="3" y="16.71" width="4" height="2"/><rect x="8" y="16.71" width="4" height="2"/></svg>